<?xml version="1.0" encoding="UTF-8" standalone="no"?>
<svg
   xmlns:dc="http://purl.org/dc/elements/1.1/"
   xmlns:cc="http://creativecommons.org/ns#"
   xmlns:rdf="http://www.w3.org/1999/02/22-rdf-syntax-ns#"
   xmlns:svg="http://www.w3.org/2000/svg"
   xmlns="http://www.w3.org/2000/svg"
   viewBox="0 0 242.5 242.5"
   height="242.5"
   width="242.5"
   xml:space="preserve"
   version="1.1"
   id="svg2"><metadata
     id="metadata8"><rdf:RDF><cc:Work
         rdf:about=""><dc:format>image/svg+xml</dc:format><dc:type
           rdf:resource="http://purl.org/dc/dcmitype/StillImage" /></cc:Work></rdf:RDF></metadata><defs
     id="defs6"><clipPath
       id="clipPath20"
       clipPathUnits="userSpaceOnUse"><path
         style="clip-rule:evenodd"
         id="path22"
         d="m 966.379,477.375 c 516.621,0 935.431,220.313 935.431,492.078 0,271.757 -418.81,492.067 -935.431,492.067 -516.617,0 -935.4337,-220.31 -935.4337,-492.067 0,-271.765 418.8167,-492.078 935.4337,-492.078 z" /></clipPath></defs><g
     transform="matrix(1.25,0,0,-1.25,0,242.5)"
     id="g10"><g
       transform="scale(0.1,0.1)"
       id="g12"><path
         id="path14"
         style="fill:#ffffff;fill-opacity:1;fill-rule:evenodd;stroke:none"
         d="m 2.59766,5.66797 1927.56004,0 0,1927.56003 -1927.56004,0 0,-1927.56003 z" /><g
         id="g16"><g
           clip-path="url(#clipPath20)"
           id="g18"><path
             id="path24"
             style="fill:#231f20;fill-opacity:1;fill-rule:nonzero;stroke:none"
             d="m 966.379,477.375 c 516.621,0 935.431,220.313 935.431,492.078 0,271.757 -418.81,492.067 -935.431,492.067 -516.617,0 -935.4337,-220.31 -935.4337,-492.067 0,-271.765 418.8167,-492.078 935.4337,-492.078 z m 935.431,0 0,984.145 -1870.8647,0 0,-984.145 1870.8647,0 z M -904.488,1953.6 l 3170.888,0 c 0,1751.23 -1419.654,3170.89 -3170.888,3170.89 -1751.232,0 -3170.892,-1419.66 -3170.892,-3170.89 0,-1751.237 1419.66,-3170.89 3170.892,-3170.89 1751.234,0 3170.888,1419.653 3170.888,3170.89" /><path
             id="path26"
             style="fill:#231f20;fill-opacity:1;fill-rule:nonzero;stroke:none"
             d="m -904.488,1953.6 2219.628,0 c 0,1225.86 -993.765,2219.62 -2219.628,2219.62 -1225.862,0 -2219.622,-993.76 -2219.622,-2219.62 0,-1225.866 993.76,-2219.627 2219.622,-2219.627 1225.863,0 2219.628,993.761 2219.628,2219.627" /><path
             id="path28"
             style="fill:#252122;fill-opacity:1;fill-rule:nonzero;stroke:none"
             d="m -904.488,1953.6 2210.948,0 c 0,1221.07 -989.874,2210.95 -2210.948,2210.95 -1221.072,0 -2210.952,-989.88 -2210.952,-2210.95 0,-1221.077 989.88,-2210.955 2210.952,-2210.955 1221.074,0 2210.948,989.878 2210.948,2210.955" /><path
             id="path30"
             style="fill:#262223;fill-opacity:1;fill-rule:nonzero;stroke:none"
             d="m -904.488,1953.6 2202.288,0 c 0,1216.28 -986.003,2202.28 -2202.288,2202.28 -1216.282,0 -2202.282,-986 -2202.282,-2202.28 0,-1216.287 986,-2202.284 2202.282,-2202.284 1216.285,0 2202.288,985.997 2202.288,2202.284" /><path
             id="path32"
             style="fill:#272324;fill-opacity:1;fill-rule:nonzero;stroke:none"
             d="m -904.488,1953.6 2193.618,0 c 0,1211.49 -982.122,2193.61 -2193.618,2193.61 -1211.492,0 -2193.612,-982.12 -2193.612,-2193.61 0,-1211.498 982.12,-2193.616 2193.612,-2193.616 1211.496,0 2193.618,982.118 2193.618,2193.616" /><path
             id="path34"
             style="fill:#282426;fill-opacity:1;fill-rule:nonzero;stroke:none"
             d="m -904.488,1953.6 2184.938,0 c 0,1206.7 -978.231,2184.94 -2184.938,2184.94 -1206.712,0 -2184.942,-978.24 -2184.942,-2184.94 0,-1206.709 978.23,-2184.944 2184.942,-2184.944 1206.707,0 2184.938,978.235 2184.938,2184.944" /><path
             id="path36"
             style="fill:#2a2627;fill-opacity:1;fill-rule:nonzero;stroke:none"
             d="m -904.488,1953.6 2176.278,0 c 0,1201.92 -974.356,2176.27 -2176.278,2176.27 -1201.922,0 -2176.272,-974.35 -2176.272,-2176.27 0,-1201.924 974.35,-2176.276 2176.272,-2176.276 1201.922,0 2176.278,974.352 2176.278,2176.276" /><path
             id="path38"
             style="fill:#2b2729;fill-opacity:1;fill-rule:nonzero;stroke:none"
             d="m -904.488,1953.6 2167.598,0 c 0,1197.13 -970.465,2167.6 -2167.598,2167.6 -1197.132,0 -2167.602,-970.47 -2167.602,-2167.6 0,-1197.135 970.47,-2167.604 2167.602,-2167.604 1197.133,0 2167.598,970.469 2167.598,2167.604" /><path
             id="path40"
             style="fill:#2d292a;fill-opacity:1;fill-rule:nonzero;stroke:none"
             d="m -904.488,1953.6 2158.938,0 c 0,1192.34 -966.595,2158.93 -2158.938,2158.93 -1192.342,0 -2158.932,-966.59 -2158.932,-2158.93 0,-1192.346 966.59,-2158.932 2158.932,-2158.932 1192.343,0 2158.938,966.586 2158.938,2158.932" /><path
             id="path42"
             style="fill:#2e2a2b;fill-opacity:1;fill-rule:nonzero;stroke:none"
             d="m -904.488,1953.6 2150.258,0 c 0,1187.55 -962.704,2150.26 -2150.258,2150.26 -1187.552,0 -2150.262,-962.71 -2150.262,-2150.26 0,-1187.557 962.71,-2150.264 2150.262,-2150.264 1187.554,0 2150.258,962.707 2150.258,2150.264" /><path
             id="path44"
             style="fill:#2f2b2d;fill-opacity:1;fill-rule:nonzero;stroke:none"
             d="m -904.488,1953.6 2141.588,0 c 0,1182.76 -958.823,2141.59 -2141.588,2141.59 -1182.762,0 -2141.592,-958.83 -2141.592,-2141.59 0,-1182.768 958.83,-2141.592 2141.592,-2141.592 1182.765,0 2141.588,958.824 2141.588,2141.592" /><path
             id="path46"
             style="fill:#302c2e;fill-opacity:1;fill-rule:nonzero;stroke:none"
             d="m -904.488,1953.6 2132.918,0 c 0,1177.97 -954.942,2132.92 -2132.918,2132.92 -1177.972,0 -2132.922,-954.95 -2132.922,-2132.92 0,-1177.979 954.95,-2132.924 2132.922,-2132.924 1177.976,0 2132.918,954.945 2132.918,2132.924" /><path
             id="path48"
             style="fill:#312e30;fill-opacity:1;fill-rule:nonzero;stroke:none"
             d="m -904.488,1953.6 2124.248,0 c 0,1173.19 -951.061,2124.25 -2124.248,2124.25 -1173.192,0 -2124.252,-951.06 -2124.252,-2124.25 0,-1173.19 951.06,-2124.252 2124.252,-2124.252 1173.187,0 2124.248,951.062 2124.248,2124.252" /><path
             id="path50"
             style="fill:#322f31;fill-opacity:1;fill-rule:nonzero;stroke:none"
             d="m -904.488,1953.6 2115.578,0 c 0,1168.4 -947.176,2115.58 -2115.578,2115.58 -1168.402,0 -2115.582,-947.18 -2115.582,-2115.58 0,-1168.405 947.18,-2115.58 2115.582,-2115.58 1168.402,0 2115.578,947.175 2115.578,2115.58" /><path
             id="path52"
             style="fill:#343032;fill-opacity:1;fill-rule:nonzero;stroke:none"
             d="m -904.488,1953.6 2106.908,0 c 0,1163.61 -943.295,2106.91 -2106.908,2106.91 -1163.612,0 -2106.912,-943.3 -2106.912,-2106.91 0,-1163.616 943.3,-2106.913 2106.912,-2106.913 1163.613,0 2106.908,943.297 2106.908,2106.913" /><path
             id="path54"
             style="fill:#353134;fill-opacity:1;fill-rule:nonzero;stroke:none"
             d="m -904.488,1953.6 2098.238,0 c 0,1158.82 -939.414,2098.24 -2098.238,2098.24 -1158.822,0 -2098.242,-939.42 -2098.242,-2098.24 0,-1158.827 939.42,-2098.241 2098.242,-2098.241 1158.824,0 2098.238,939.414 2098.238,2098.241" /><path
             id="path56"
             style="fill:#363235;fill-opacity:1;fill-rule:nonzero;stroke:none"
             d="m -904.488,1953.6 2089.568,0 c 0,1154.03 -935.533,2089.57 -2089.568,2089.57 -1154.032,0 -2089.572,-935.54 -2089.572,-2089.57 0,-1154.037 935.54,-2089.573 2089.572,-2089.573 1154.035,0 2089.568,935.536 2089.568,2089.573" /><path
             id="path58"
             style="fill:#373437;fill-opacity:1;fill-rule:nonzero;stroke:none"
             d="m -904.488,1953.6 2080.898,0 c 0,1149.24 -931.652,2080.9 -2080.898,2080.9 -1149.242,0 -2080.902,-931.66 -2080.902,-2080.9 0,-1149.248 931.66,-2080.901 2080.902,-2080.901 1149.246,0 2080.898,931.653 2080.898,2080.901" /><path
             id="path60"
             style="fill:#383437;fill-opacity:1;fill-rule:nonzero;stroke:none"
             d="m -904.488,1953.6 2072.228,0 c 0,1144.45 -927.771,2072.23 -2072.228,2072.23 -1144.462,0 -2072.222,-927.78 -2072.222,-2072.23 0,-1144.459 927.76,-2072.229 2072.222,-2072.229 1144.457,0 2072.228,927.77 2072.228,2072.229" /><path
             id="path62"
             style="fill:#393639;fill-opacity:1;fill-rule:nonzero;stroke:none"
             d="m -904.488,1953.6 2063.558,0 c 0,1139.67 -923.89,2063.56 -2063.558,2063.56 -1139.672,0 -2063.562,-923.89 -2063.562,-2063.56 0,-1139.67 923.89,-2063.561 2063.562,-2063.561 1139.668,0 2063.558,923.891 2063.558,2063.561" /><path
             id="path64"
             style="fill:#3a373a;fill-opacity:1;fill-rule:nonzero;stroke:none"
             d="m -904.488,1953.6 2054.888,0 c 0,1134.88 -920.005,2054.88 -2054.888,2054.88 -1134.882,0 -2054.892,-920 -2054.892,-2054.88 0,-1134.885 920.01,-2054.889 2054.892,-2054.889 1134.883,0 2054.888,920.004 2054.888,2054.889" /><path
             id="path66"
             style="fill:#3b383c;fill-opacity:1;fill-rule:nonzero;stroke:none"
             d="m -904.488,1953.6 2046.218,0 c 0,1130.09 -916.125,2046.22 -2046.218,2046.22 -1130.092,0 -2046.222,-916.13 -2046.222,-2046.22 0,-1130.096 916.13,-2046.2211 2046.222,-2046.2211 1130.093,0 2046.218,916.1251 2046.218,2046.2211" /><path
             id="path68"
             style="fill:#3d393d;fill-opacity:1;fill-rule:nonzero;stroke:none"
             d="m -904.488,1953.6 2037.548,0 c 0,1125.3 -912.244,2037.54 -2037.548,2037.54 -1125.302,0 -2037.552,-912.24 -2037.552,-2037.54 0,-1125.307 912.25,-2037.5492 2037.552,-2037.5492 1125.304,0 2037.548,912.2422 2037.548,2037.5492" /><path
             id="path70"
             style="fill:#3d3a3e;fill-opacity:1;fill-rule:nonzero;stroke:none"
             d="m -904.488,1953.6 2028.878,0 c 0,1120.51 -908.363,2028.88 -2028.878,2028.88 -1120.512,0 -2028.872,-908.37 -2028.872,-2028.88 0,-1120.518 908.36,-2028.8773 2028.872,-2028.8773 1120.515,0 2028.878,908.3593 2028.878,2028.8773" /><path
             id="path72"
             style="fill:#3e3b3f;fill-opacity:1;fill-rule:nonzero;stroke:none"
             d="m -904.488,1953.6 2020.208,0 c 0,1115.72 -904.482,2020.2 -2020.208,2020.2 -1115.722,0 -2020.212,-904.48 -2020.212,-2020.2 0,-1115.729 904.49,-2020.2094 2020.212,-2020.2094 1115.726,0 2020.208,904.4804 2020.208,2020.2094" /><path
             id="path74"
             style="fill:#3f3c41;fill-opacity:1;fill-rule:nonzero;stroke:none"
             d="m -904.488,1953.6 2011.538,0 c 0,1110.94 -900.601,2011.53 -2011.538,2011.53 -1110.942,0 -2011.532,-900.59 -2011.532,-2011.53 0,-1110.94 900.59,-2011.5375 2011.532,-2011.5375 1110.937,0 2011.538,900.5975 2011.538,2011.5375" /><path
             id="path76"
             style="fill:#403d42;fill-opacity:1;fill-rule:nonzero;stroke:none"
             d="m -904.488,1953.6 2002.868,0 c 0,1106.15 -896.72,2002.86 -2002.868,2002.86 -1106.152,0 -2002.872,-896.71 -2002.872,-2002.86 0,-1106.151 896.72,-2002.8695 2002.872,-2002.8695 1106.148,0 2002.868,896.7185 2002.868,2002.8695" /><path
             id="path78"
             style="fill:#413e43;fill-opacity:1;fill-rule:nonzero;stroke:none"
             d="m -904.488,1953.6 1994.198,0 c 0,1101.36 -892.835,1994.19 -1994.198,1994.19 -1101.362,0 -1994.192,-892.83 -1994.192,-1994.19 0,-1101.366 892.83,-1994.1977 1994.192,-1994.1977 1101.363,0 1994.198,892.8317 1994.198,1994.1977" /><path
             id="path80"
             style="fill:#423f44;fill-opacity:1;fill-rule:nonzero;stroke:none"
             d="m -904.488,1953.6 1985.528,0 c 0,1096.57 -888.954,1985.53 -1985.528,1985.53 -1096.572,0 -1985.522,-888.96 -1985.522,-1985.53 0,-1096.577 888.95,-1985.5258 1985.522,-1985.5258 1096.574,0 1985.528,888.9488 1985.528,1985.5258" /><path
             id="path82"
             style="fill:#434045;fill-opacity:1;fill-rule:nonzero;stroke:none"
             d="m -904.488,1953.6 1976.858,0 c 0,1091.78 -885.073,1976.85 -1976.858,1976.85 -1091.782,0 -1976.852,-885.07 -1976.852,-1976.85 0,-1091.787 885.07,-1976.8578 1976.852,-1976.8578 1091.785,0 1976.858,885.0708 1976.858,1976.8578" /><path
             id="path84"
             style="fill:#444147;fill-opacity:1;fill-rule:nonzero;stroke:none"
             d="m -904.488,1953.6 1968.188,0 c 0,1086.99 -881.192,1968.18 -1968.188,1968.18 -1086.992,0 -1968.182,-881.19 -1968.182,-1968.18 0,-1086.998 881.19,-1968.1859 1968.182,-1968.1859 1086.996,0 1968.188,881.1879 1968.188,1968.1859" /><path
             id="path86"
             style="fill:#454248;fill-opacity:1;fill-rule:nonzero;stroke:none"
             d="m -904.488,1953.6 1959.518,0 c 0,1082.2 -877.311,1959.51 -1959.518,1959.51 C -1986.7,3913.11 -2864,3035.8 -2864,1953.6 -2864,871.391 -1986.7,-5.91406 -904.488,-5.91406 177.719,-5.91406 1055.03,871.391 1055.03,1953.6" /><path
             id="path88"
             style="fill:#454249;fill-opacity:1;fill-rule:nonzero;stroke:none"
             d="m -904.488,1953.6 1950.848,0 c 0,1077.42 -873.43,1950.84 -1950.848,1950.84 -1077.422,0 -1950.842,-873.42 -1950.842,-1950.84 C -2855.33,876.18 -1981.91,2.75391 -904.488,2.75391 172.93,2.75391 1046.36,876.18 1046.36,1953.6" /><path
             id="path90"
             style="fill:#46434a;fill-opacity:1;fill-rule:nonzero;stroke:none"
             d="m -904.488,1953.6 1942.168,0 c 0,1072.63 -869.535,1942.17 -1942.168,1942.17 -1072.632,0 -1942.172,-869.54 -1942.172,-1942.17 0,-1072.635 869.54,-1942.1742 1942.172,-1942.1742 1072.633,0 1942.168,869.5392 1942.168,1942.1742" /><path
             id="path92"
             style="fill:#47444b;fill-opacity:1;fill-rule:nonzero;stroke:none"
             d="m -904.488,1953.6 1933.508,0 c 0,1067.84 -865.665,1933.5 -1933.508,1933.5 -1067.842,0 -1933.502,-865.66 -1933.502,-1933.5 0,-1067.846 865.66,-1933.5062 1933.502,-1933.5062 1067.843,0 1933.508,865.6602 1933.508,1933.5062" /><path
             id="path94"
             style="fill:#48454c;fill-opacity:1;fill-rule:nonzero;stroke:none"
             d="m -904.488,1953.6 1924.828,0 c 0,1063.05 -861.774,1924.83 -1924.828,1924.83 -1063.052,0 -1924.832,-861.78 -1924.832,-1924.83 0,-1063.057 861.78,-1924.8344 1924.832,-1924.8344 1063.054,0 1924.828,861.7774 1924.828,1924.8344" /><path
             id="path96"
             style="fill:#49464e;fill-opacity:1;fill-rule:nonzero;stroke:none"
             d="m -904.488,1953.6 1916.168,0 c 0,1058.26 -857.903,1916.16 -1916.168,1916.16 -1058.262,0 -1916.162,-857.9 -1916.162,-1916.16 0,-1058.268 857.9,-1916.1625 1916.162,-1916.1625 1058.265,0 1916.168,857.8945 1916.168,1916.1625" /><path
             id="path98"
             style="fill:#49474f;fill-opacity:1;fill-rule:nonzero;stroke:none"
             d="m -904.488,1953.6 1907.488,0 c 0,1053.47 -854.012,1907.49 -1907.488,1907.49 -1053.472,0 -1907.492,-854.02 -1907.492,-1907.49 0,-1053.479 854.02,-1907.4945 1907.492,-1907.4945 C 148.988,46.1055 1003,900.121 1003,1953.6" /><path
             id="path100"
             style="fill:#4a4850;fill-opacity:1;fill-rule:nonzero;stroke:none"
             d="m -904.488,1953.6 1898.82,0 c 0,1048.69 -850.133,1898.82 -1898.82,1898.82 -1048.692,0 -1898.822,-850.13 -1898.822,-1898.82 0,-1048.69 850.13,-1898.8227 1898.822,-1898.8227 1048.687,0 1898.82,850.1327 1898.82,1898.8227" /><path
             id="path102"
             style="fill:#4b4851;fill-opacity:1;fill-rule:nonzero;stroke:none"
             d="m -904.488,1953.6 1890.152,0 c 0,1043.9 -846.254,1890.15 -1890.152,1890.15 -1043.902,0 -1890.152,-846.25 -1890.152,-1890.15 0,-1043.901 846.25,-1890.1547 1890.152,-1890.1547 1043.898,0 1890.152,846.2537 1890.152,1890.1547" /><path
             id="path104"
             style="fill:#4c4952;fill-opacity:1;fill-rule:nonzero;stroke:none"
             d="m -904.488,1953.6 1881.48,0 c 0,1039.11 -842.367,1881.48 -1881.48,1881.48 -1039.112,0 -1881.482,-842.37 -1881.482,-1881.48 0,-1039.116 842.37,-1881.4828 1881.482,-1881.4828 1039.113,0 1881.48,842.3668 1881.48,1881.4828" /><path
             id="path106"
             style="fill:#4c4a53;fill-opacity:1;fill-rule:nonzero;stroke:none"
             d="m -904.488,1953.6 1872.812,0 c 0,1034.32 -838.488,1872.81 -1872.812,1872.81 -1034.322,0 -1872.812,-838.49 -1872.812,-1872.81 0,-1034.327 838.49,-1872.8109 1872.812,-1872.8109 1034.324,0 1872.812,838.4839 1872.812,1872.8109" /><path
             id="path108"
             style="fill:#4d4b54;fill-opacity:1;fill-rule:nonzero;stroke:none"
             d="m -904.488,1953.6 1864.14,0 c 0,1029.53 -834.605,1864.14 -1864.14,1864.14 -1029.532,0 -1864.142,-834.61 -1864.142,-1864.14 0,-1029.537 834.61,-1864.143 1864.142,-1864.143 1029.535,0 1864.14,834.606 1864.14,1864.143" /><path
             id="path110"
             style="fill:#4d4b55;fill-opacity:1;fill-rule:nonzero;stroke:none"
             d="m -904.488,1953.6 1855.468,0 c 0,1024.74 -830.722,1855.47 -1855.468,1855.47 -1024.742,0 -1855.472,-830.73 -1855.472,-1855.47 0,-1024.748 830.73,-1855.4711 1855.472,-1855.4711 C 120.258,98.1289 950.98,928.852 950.98,1953.6" /><path
             id="path112"
             style="fill:#4e4c56;fill-opacity:1;fill-rule:nonzero;stroke:none"
             d="m -904.488,1953.6 1846.801,0 c 0,1019.95 -826.844,1846.8 -1846.801,1846.8 -1019.962,0 -1846.802,-826.85 -1846.802,-1846.8 0,-1019.959 826.84,-1846.803 1846.802,-1846.803 1019.957,0 1846.801,826.844 1846.801,1846.803" /><path
             id="path114"
             style="fill:#4f4d58;fill-opacity:1;fill-rule:nonzero;stroke:none"
             d="m -904.488,1953.6 1838.129,0 c 0,1015.17 -822.961,1838.13 -1838.129,1838.13 -1015.172,0 -1838.132,-822.96 -1838.132,-1838.13 0,-1015.17 822.96,-1838.131 1838.132,-1838.131 1015.168,0 1838.129,822.961 1838.129,1838.131" /><path
             id="path116"
             style="fill:#4f4e59;fill-opacity:1;fill-rule:nonzero;stroke:none"
             d="m -904.488,1953.6 1829.461,0 c 0,1010.38 -819.082,1829.46 -1829.461,1829.46 -1010.382,0 -1829.462,-819.08 -1829.462,-1829.46 0,-1010.381 819.08,-1829.459 1829.462,-1829.459 1010.379,0 1829.461,819.078 1829.461,1829.459" /><path
             id="path118"
             style="fill:#504e59;fill-opacity:1;fill-rule:nonzero;stroke:none"
             d="m -904.488,1953.6 1820.789,0 c 0,1005.59 -815.196,1820.79 -1820.789,1820.79 -1005.592,0 -1820.792,-815.2 -1820.792,-1820.79 0,-1005.596 815.2,-1820.791 1820.792,-1820.791 1005.593,0 1820.789,815.195 1820.789,1820.791" /><path
             id="path120"
             style="fill:#504f5b;fill-opacity:1;fill-rule:nonzero;stroke:none"
             d="m -904.488,1953.6 1812.117,0 c 0,1000.8 -811.3126,1812.12 -1812.117,1812.12 -1000.802,0 -1812.122,-811.32 -1812.122,-1812.12 0,-1000.807 811.32,-1812.12 1812.122,-1812.12 1000.8044,0 1812.117,811.313 1812.117,1812.12" /><path
             id="path122"
             style="fill:#51505c;fill-opacity:1;fill-rule:nonzero;stroke:none"
             d="m -904.488,1953.6 1803.449,0 c 0,996.01 -807.4337,1803.45 -1803.449,1803.45 -996.012,0 -1803.452,-807.44 -1803.452,-1803.45 0,-996.018 807.44,-1803.452 1803.452,-1803.452 996.0153,0 1803.449,807.434 1803.449,1803.452" /><path
             id="path124"
             style="fill:#52505d;fill-opacity:1;fill-rule:nonzero;stroke:none"
             d="m -904.488,1953.6 1794.777,0 c 0,991.22 -803.5507,1794.78 -1794.777,1794.78 -991.222,0 -1794.782,-803.56 -1794.782,-1794.78 0,-991.229 803.56,-1794.78 1794.782,-1794.78 991.2263,0 1794.777,803.551 1794.777,1794.78" /><path
             id="path126"
             style="fill:#52515d;fill-opacity:1;fill-rule:nonzero;stroke:none"
             d="m -904.488,1953.6 1786.109,0 c 0,986.44 -799.6718,1786.11 -1786.109,1786.11 -986.442,0 -1786.112,-799.67 -1786.112,-1786.11 0,-986.44 799.67,-1786.108 1786.112,-1786.108 986.4372,0 1786.109,799.668 1786.109,1786.108" /><path
             id="path128"
             style="fill:#52515f;fill-opacity:1;fill-rule:nonzero;stroke:none"
             d="m -904.488,1953.6 1777.437,0 c 0,981.65 -795.7888,1777.44 -1777.437,1777.44 -981.652,0 -1777.442,-795.79 -1777.442,-1777.44 0,-981.651 795.79,-1777.44 1777.442,-1777.44 981.6482,0 1777.437,795.789 1777.437,1777.44" /><path
             id="path130"
             style="fill:#535260;fill-opacity:1;fill-rule:nonzero;stroke:none"
             d="m -904.488,1953.6 1768.765,0 c 0,976.86 -791.9059,1768.76 -1768.765,1768.76 -976.862,0 -1768.762,-791.9 -1768.762,-1768.76 0,-976.862 791.9,-1768.768 1768.762,-1768.768 976.8591,0 1768.765,791.906 1768.765,1768.768" /><path
             id="path132"
             style="fill:#535361;fill-opacity:1;fill-rule:nonzero;stroke:none"
             d="m -904.488,1953.6 1760.097,0 c 0,972.07 -788.0231,1760.1 -1760.097,1760.1 -972.072,0 -1760.102,-788.03 -1760.102,-1760.1 0,-972.077 788.03,-1760.1 1760.102,-1760.1 972.0739,0 1760.097,788.023 1760.097,1760.1" /><path
             id="path134"
             style="fill:#545362;fill-opacity:1;fill-rule:nonzero;stroke:none"
             d="m -904.488,1953.6 1751.426,0 c 0,967.28 -784.1411,1751.42 -1751.426,1751.42 -967.282,0 -1751.422,-784.14 -1751.422,-1751.42 0,-967.287 784.14,-1751.428 1751.422,-1751.428 967.2849,0 1751.426,784.141 1751.426,1751.428" /><path
             id="path136"
             style="fill:#545462;fill-opacity:1;fill-rule:nonzero;stroke:none"
             d="m -904.488,1953.6 1742.754,0 c 0,962.49 -780.2582,1742.76 -1742.754,1742.76 -962.492,0 -1742.752,-780.27 -1742.752,-1742.76 0,-962.498 780.26,-1742.756 1742.752,-1742.756 962.4958,0 1742.754,780.258 1742.754,1742.756" /><path
             id="path138"
             style="fill:#555464;fill-opacity:1;fill-rule:nonzero;stroke:none"
             d="m -904.488,1953.6 1734.086,0 c 0,957.7 -776.3792,1734.08 -1734.086,1734.08 -957.712,0 -1734.082,-776.38 -1734.082,-1734.08 0,-957.709 776.37,-1734.088 1734.082,-1734.088 957.7068,0 1734.086,776.379 1734.086,1734.088" /><path
             id="path140"
             style="fill:#555565;fill-opacity:1;fill-rule:nonzero;stroke:none"
             d="m -904.488,1953.6 1725.414,0 c 0,952.92 -772.4963,1725.41 -1725.414,1725.41 -952.922,0 -1725.412,-772.49 -1725.412,-1725.41 0,-952.92 772.49,-1725.416 1725.412,-1725.416 952.9177,0 1725.414,772.496 1725.414,1725.416" /><path
             id="path142"
             style="fill:#555666;fill-opacity:1;fill-rule:nonzero;stroke:none"
             d="m -904.488,1953.6 1716.746,0 c 0,948.13 -768.6174,1716.74 -1716.746,1716.74 -948.132,0 -1716.742,-768.61 -1716.742,-1716.74 0,-948.13 768.61,-1716.745 1716.742,-1716.745 948.1286,0 1716.746,768.615 1716.746,1716.745" /><path
             id="path144"
             style="fill:#565667;fill-opacity:1;fill-rule:nonzero;stroke:none"
             d="m -904.488,1953.6 1708.074,0 c 0,943.34 -764.7344,1708.07 -1708.074,1708.07 -943.342,0 -1708.072,-764.73 -1708.072,-1708.07 0,-943.34 764.73,-1708.077 1708.072,-1708.077 943.3396,0 1708.074,764.737 1708.074,1708.077" /><path
             id="path146"
             style="fill:#565667;fill-opacity:1;fill-rule:nonzero;stroke:none"
             d="m -904.488,1953.6 1699.402,0 c 0,938.55 -760.8515,1699.4 -1699.402,1699.4 -938.552,0 -1699.402,-760.85 -1699.402,-1699.4 0,-938.55 760.85,-1699.405 1699.402,-1699.405 938.5505,0 1699.402,760.855 1699.402,1699.405" /><path
             id="path148"
             style="fill:#565768;fill-opacity:1;fill-rule:nonzero;stroke:none"
             d="m -904.488,1953.6 1690.734,0 c 0,933.76 -756.9687,1690.73 -1690.734,1690.73 -933.762,0 -1690.732,-756.97 -1690.732,-1690.73 0,-933.77 756.97,-1690.737 1690.732,-1690.737 933.7653,0 1690.734,756.967 1690.734,1690.737" /><path
             id="path150"
             style="fill:#575869;fill-opacity:1;fill-rule:nonzero;stroke:none"
             d="m -904.488,1953.6 1682.062,0 c 0,928.97 -753.0857,1682.06 -1682.062,1682.06 -928.972,0 -1682.062,-753.09 -1682.062,-1682.06 0,-928.98 753.09,-1682.065 1682.062,-1682.065 928.9763,0 1682.062,753.085 1682.062,1682.065" /><path
             id="path152"
             style="fill:#57586a;fill-opacity:1;fill-rule:nonzero;stroke:none"
             d="m -904.488,1953.6 1673.39,0 c 0,924.19 -749.2028,1673.39 -1673.39,1673.39 -924.192,0 -1673.392,-749.2 -1673.392,-1673.39 0,-924.19 749.2,-1673.393 1673.392,-1673.393 924.1872,0 1673.39,749.203 1673.39,1673.393" /><path
             id="path154"
             style="fill:#57596b;fill-opacity:1;fill-rule:nonzero;stroke:none"
             d="m -904.488,1953.6 1664.722,0 c 0,919.4 -745.3238,1664.72 -1664.722,1664.72 -919.402,0 -1664.722,-745.32 -1664.722,-1664.72 0,-919.4 745.32,-1664.725 1664.722,-1664.725 919.3982,0 1664.722,745.325 1664.722,1664.725" /><path
             id="path156"
             style="fill:#57596c;fill-opacity:1;fill-rule:nonzero;stroke:none"
             d="m -904.488,1953.6 1656.051,0 c 0,914.61 -741.4419,1656.05 -1656.051,1656.05 -914.612,0 -1656.052,-741.44 -1656.052,-1656.05 0,-914.61 741.44,-1656.053 1656.052,-1656.053 914.6091,0 1656.051,741.443 1656.051,1656.053" /><path
             id="path158"
             style="fill:#58596d;fill-opacity:1;fill-rule:nonzero;stroke:none"
             d="m -904.488,1953.6 1647.383,0 c 0,909.82 -737.56297,1647.38 -1647.383,1647.38 -909.822,0 -1647.382,-737.56 -1647.382,-1647.38 0,-909.82 737.56,-1647.381 1647.382,-1647.381 909.82003,0 1647.383,737.561 1647.383,1647.381" /><path
             id="path160"
             style="fill:#585a6e;fill-opacity:1;fill-rule:nonzero;stroke:none"
             d="m -904.488,1953.6 1638.711,0 c 0,905.03 -733.680031,1638.71 -1638.711,1638.71 -905.032,0 -1638.712,-733.68 -1638.712,-1638.71 0,-905.03 733.68,-1638.713 1638.712,-1638.713 905.030969,0 1638.711,733.683 1638.711,1638.713" /><path
             id="path162"
             style="fill:#585a6f;fill-opacity:1;fill-rule:nonzero;stroke:none"
             d="m -904.488,1953.6 1630.039,0 c 0,900.24 -729.79319,1630.04 -1630.039,1630.04 -900.242,0 -1630.042,-729.8 -1630.042,-1630.04 0,-900.25 729.8,-1630.041 1630.042,-1630.041 900.24581,0 1630.039,729.791 1630.039,1630.041" /><path
             id="path164"
             style="fill:#585b70;fill-opacity:1;fill-rule:nonzero;stroke:none"
             d="m -904.488,1953.6 1621.371,0 c 0,895.45 -725.91425,1621.37 -1621.371,1621.37 -895.462,0 -1621.372,-725.92 -1621.372,-1621.37 0,-895.46 725.91,-1621.37 1621.372,-1621.37 895.45675,0 1621.371,725.91 1621.371,1621.37" /><path
             id="path166"
             style="fill:#595b71;fill-opacity:1;fill-rule:nonzero;stroke:none"
             d="m -904.488,1953.6 1612.699,0 c 0,890.67 -722.0313,1612.7 -1612.699,1612.7 -890.672,0 -1612.702,-722.03 -1612.702,-1612.7 0,-890.67 722.03,-1612.702 1612.702,-1612.702 890.6677,0 1612.699,722.032 1612.699,1612.702" /><path
             id="path168"
             style="fill:#595b71;fill-opacity:1;fill-rule:nonzero;stroke:none"
             d="m -904.488,1953.6 1604.027,0 c 0,885.88 -718.1484,1604.03 -1604.027,1604.03 -885.882,0 -1604.032,-718.15 -1604.032,-1604.03 0,-885.88 718.15,-1604.03 1604.032,-1604.03 885.8786,0 1604.027,718.15 1604.027,1604.03" /><path
             id="path170"
             style="fill:#595c72;fill-opacity:1;fill-rule:nonzero;stroke:none"
             d="m -904.488,1953.6 1595.359,0 c 0,881.09 -714.2694,1595.36 -1595.359,1595.36 -881.092,0 -1595.362,-714.27 -1595.362,-1595.36 0,-881.09 714.27,-1595.362 1595.362,-1595.362 881.0896,0 1595.359,714.272 1595.359,1595.362" /><path
             id="path172"
             style="fill:#595c73;fill-opacity:1;fill-rule:nonzero;stroke:none"
             d="m -904.488,1953.6 1586.687,0 c 0,876.3 -710.3865,1586.69 -1586.687,1586.69 -876.302,0 -1586.692,-710.39 -1586.692,-1586.69 0,-876.3 710.39,-1586.69 1586.692,-1586.69 876.3005,0 1586.687,710.39 1586.687,1586.69" /><path
             id="path174"
             style="fill:#595d74;fill-opacity:1;fill-rule:nonzero;stroke:none"
             d="m -904.488,1953.6 1578.019,0 c 0,871.51 -706.5076,1578.02 -1578.019,1578.02 -871.512,0 -1578.012,-706.51 -1578.012,-1578.02 0,-871.51 706.5,-1578.018 1578.012,-1578.018 871.5114,0 1578.019,706.508 1578.019,1578.018" /><path
             id="path176"
             style="fill:#595d75;fill-opacity:1;fill-rule:nonzero;stroke:none"
             d="m -904.488,1953.6 1569.347,0 c 0,866.72 -702.6246,1569.35 -1569.347,1569.35 -866.722,0 -1569.352,-702.63 -1569.352,-1569.35 0,-866.72 702.63,-1569.35 1569.352,-1569.35 866.7224,0 1569.347,702.63 1569.347,1569.35" /><path
             id="path178"
             style="fill:#595d76;fill-opacity:1;fill-rule:nonzero;stroke:none"
             d="m -904.488,1953.6 1560.676,0 c 0,861.94 -698.7388,1560.67 -1560.676,1560.67 -861.942,0 -1560.672,-698.73 -1560.672,-1560.67 0,-861.94 698.73,-1560.678 1560.672,-1560.678 861.9372,0 1560.676,698.738 1560.676,1560.678" /><path
             id="path180"
             style="fill:#595e77;fill-opacity:1;fill-rule:nonzero;stroke:none"
             d="m -904.488,1953.6 1552.008,0 c 0,857.15 -694.8598,1552.01 -1552.008,1552.01 -857.152,0 -1552.012,-694.86 -1552.012,-1552.01 0,-857.15 694.86,-1552.006 1552.012,-1552.006 857.1482,0 1552.008,694.856 1552.008,1552.006" /><path
             id="path182"
             style="fill:#5a5e77;fill-opacity:1;fill-rule:nonzero;stroke:none"
             d="m -904.488,1953.6 1543.336,0 c 0,852.36 -690.9769,1543.33 -1543.336,1543.33 -852.362,0 -1543.332,-690.97 -1543.332,-1543.33 0,-852.36 690.97,-1543.338 1543.332,-1543.338 852.3591,0 1543.336,690.978 1543.336,1543.338" /><path
             id="path184"
             style="fill:#5a5e78;fill-opacity:1;fill-rule:nonzero;stroke:none"
             d="m -904.488,1953.6 1534.664,0 c 0,847.57 -687.094,1534.67 -1534.664,1534.67 -847.572,0 -1534.662,-687.1 -1534.662,-1534.67 0,-847.57 687.09,-1534.666 1534.662,-1534.666 847.57,0 1534.664,687.096 1534.664,1534.666" /><path
             id="path186"
             style="fill:#5a5f79;fill-opacity:1;fill-rule:nonzero;stroke:none"
             d="m -904.488,1953.6 1525.996,0 c 0,842.78 -683.215,1525.99 -1525.996,1525.99 -842.782,0 -1525.992,-683.21 -1525.992,-1525.99 0,-842.78 683.21,-1525.998 1525.992,-1525.998 842.781,0 1525.996,683.218 1525.996,1525.998" /><path
             id="path188"
             style="fill:#5a5f7a;fill-opacity:1;fill-rule:nonzero;stroke:none"
             d="m -904.488,1953.6 1517.324,0 c 0,837.99 -679.3321,1517.32 -1517.324,1517.32 -837.992,0 -1517.322,-679.33 -1517.322,-1517.32 0,-837.99 679.33,-1517.327 1517.322,-1517.327 837.9919,0 1517.324,679.337 1517.324,1517.327" /><path
             id="path190"
             style="fill:#5a5f7b;fill-opacity:1;fill-rule:nonzero;stroke:none"
             d="m -904.488,1953.6 1508.652,0 c 0,833.2 -675.4492,1508.65 -1508.652,1508.65 -833.202,0 -1508.652,-675.45 -1508.652,-1508.65 0,-833.21 675.45,-1508.655 1508.652,-1508.655 833.2028,0 1508.652,675.445 1508.652,1508.655" /><path
             id="path192"
             style="fill:#5a607b;fill-opacity:1;fill-rule:nonzero;stroke:none"
             d="m -904.488,1953.6 1499.984,0 c 0,828.42 -671.5663,1499.98 -1499.984,1499.98 -828.422,0 -1499.982,-671.56 -1499.982,-1499.98 0,-828.42 671.56,-1499.987 1499.982,-1499.987 828.4177,0 1499.984,671.567 1499.984,1499.987" /><path
             id="path194"
             style="fill:#5a607c;fill-opacity:1;fill-rule:nonzero;stroke:none"
             d="m -904.488,1953.6 1491.312,0 c 0,823.63 -667.6834,1491.31 -1491.312,1491.31 -823.632,0 -1491.312,-667.68 -1491.312,-1491.31 0,-823.63 667.68,-1491.315 1491.312,-1491.315 823.6286,0 1491.312,667.685 1491.312,1491.315" /><path
             id="path196"
             style="fill:#5a607d;fill-opacity:1;fill-rule:nonzero;stroke:none"
             d="m -904.488,1953.6 1482.644,0 c 0,818.84 -663.8044,1482.64 -1482.644,1482.64 -818.842,0 -1482.642,-663.8 -1482.642,-1482.64 0,-818.84 663.8,-1482.643 1482.642,-1482.643 818.8396,0 1482.644,663.803 1482.644,1482.643" /><path
             id="path198"
             style="fill:#5a607e;fill-opacity:1;fill-rule:nonzero;stroke:none"
             d="m -904.488,1953.6 1473.972,0 c 0,814.05 -659.9215,1473.97 -1473.972,1473.97 -814.052,0 -1473.972,-659.92 -1473.972,-1473.97 0,-814.05 659.92,-1473.975 1473.972,-1473.975 814.0505,0 1473.972,659.925 1473.972,1473.975" /><path
             id="path200"
             style="fill:#5a617f;fill-opacity:1;fill-rule:nonzero;stroke:none"
             d="m -904.488,1953.6 1465.301,0 c 0,809.26 -656.0396,1465.3 -1465.301,1465.3 -809.262,0 -1465.302,-656.04 -1465.302,-1465.3 0,-809.26 656.04,-1465.303 1465.302,-1465.303 809.2614,0 1465.301,656.043 1465.301,1465.303" /><path
             id="path202"
             style="fill:#59617f;fill-opacity:1;fill-rule:nonzero;stroke:none"
             d="m -904.488,1953.6 1456.633,0 c 0,804.47 -652.161,1456.63 -1456.633,1456.63 -804.472,0 -1456.632,-652.16 -1456.632,-1456.63 0,-804.47 652.16,-1456.635 1456.632,-1456.635 804.472,0 1456.633,652.165 1456.633,1456.635" /><path
             id="path204"
             style="fill:#596180;fill-opacity:1;fill-rule:nonzero;stroke:none"
             d="m -904.488,1953.6 1447.961,0 c 0,799.68 -648.278,1447.96 -1447.961,1447.96 -799.682,0 -1447.962,-648.28 -1447.962,-1447.96 0,-799.69 648.28,-1447.963 1447.962,-1447.963 799.683,0 1447.961,648.273 1447.961,1447.963" /><path
             id="path206"
             style="fill:#596181;fill-opacity:1;fill-rule:nonzero;stroke:none"
             d="m -904.488,1953.6 1439.289,0 c 0,794.89 -644.395,1439.29 -1439.289,1439.29 -794.892,0 -1439.292,-644.4 -1439.292,-1439.29 0,-794.9 644.4,-1439.291 1439.292,-1439.291 794.894,0 1439.289,644.391 1439.289,1439.291" /><path
             id="path208"
             style="fill:#596282;fill-opacity:1;fill-rule:nonzero;stroke:none"
             d="m -904.488,1953.6 1430.621,0 c 0,790.11 -640.512,1430.62 -1430.621,1430.62 -790.112,0 -1430.622,-640.51 -1430.622,-1430.62 0,-790.11 640.51,-1430.623 1430.622,-1430.623 790.109,0 1430.621,640.513 1430.621,1430.623" /><path
             id="path210"
             style="fill:#596283;fill-opacity:1;fill-rule:nonzero;stroke:none"
             d="m -904.488,1953.6 1421.949,0 c 0,785.32 -636.629,1421.95 -1421.949,1421.95 -785.322,0 -1421.952,-636.63 -1421.952,-1421.95 0,-785.32 636.63,-1421.952 1421.952,-1421.952 785.32,0 1421.949,636.632 1421.949,1421.952" /><path
             id="path212"
             style="fill:#596283;fill-opacity:1;fill-rule:nonzero;stroke:none"
             d="m -904.488,1953.6 1413.281,0 c 0,780.53 -632.75,1413.28 -1413.281,1413.28 -780.532,0 -1413.282,-632.75 -1413.282,-1413.28 0,-780.53 632.75,-1413.28 1413.282,-1413.28 780.531,0 1413.281,632.75 1413.281,1413.28" /><path
             id="path214"
             style="fill:#596284;fill-opacity:1;fill-rule:nonzero;stroke:none"
             d="m -904.488,1953.6 1404.609,0 c 0,775.74 -628.867,1404.61 -1404.609,1404.61 -775.742,0 -1404.612,-628.87 -1404.612,-1404.61 0,-775.74 628.87,-1404.612 1404.612,-1404.612 775.742,0 1404.609,628.872 1404.609,1404.612" /><path
             id="path216"
             style="fill:#596285;fill-opacity:1;fill-rule:nonzero;stroke:none"
             d="m -904.488,1953.6 1395.937,0 c 0,770.95 -624.984,1395.94 -1395.937,1395.94 -770.952,0 -1395.942,-624.99 -1395.942,-1395.94 0,-770.96 624.99,-1395.94 1395.942,-1395.94 770.953,0 1395.937,624.98 1395.937,1395.94" /><path
             id="path218"
             style="fill:#586386;fill-opacity:1;fill-rule:nonzero;stroke:none"
             d="m -904.488,1953.6 1387.269,0 c 0,766.16 -621.105,1387.27 -1387.269,1387.27 -766.162,0 -1387.272,-621.11 -1387.272,-1387.27 0,-766.17 621.11,-1387.272 1387.272,-1387.272 766.164,0 1387.269,621.102 1387.269,1387.272" /><path
             id="path220"
             style="fill:#586386;fill-opacity:1;fill-rule:nonzero;stroke:none"
             d="m -904.488,1953.6 1378.597,0 c 0,761.37 -617.222,1378.6 -1378.597,1378.6 -761.372,0 -1378.602,-617.23 -1378.602,-1378.6 0,-761.38 617.23,-1378.6 1378.602,-1378.6 761.375,0 1378.597,617.22 1378.597,1378.6" /><path
             id="path222"
             style="fill:#586387;fill-opacity:1;fill-rule:nonzero;stroke:none"
             d="m -904.488,1953.6 1369.926,0 c 0,756.59 -613.336,1369.93 -1369.926,1369.93 -756.592,0 -1369.922,-613.34 -1369.922,-1369.93 0,-756.59 613.33,-1369.928 1369.922,-1369.928 756.59,0 1369.926,613.338 1369.926,1369.928" /><path
             id="path224"
             style="fill:#586388;fill-opacity:1;fill-rule:nonzero;stroke:none"
             d="m -904.488,1953.6 1361.258,0 c 0,751.8 -609.458,1361.26 -1361.258,1361.26 -751.802,0 -1361.262,-609.46 -1361.262,-1361.26 0,-751.8 609.46,-1361.26 1361.262,-1361.26 751.8,0 1361.258,609.46 1361.258,1361.26" /><path
             id="path226"
             style="fill:#586388;fill-opacity:1;fill-rule:nonzero;stroke:none"
             d="m -904.488,1953.6 1352.586,0 c 0,747.01 -605.575,1352.58 -1352.586,1352.58 -747.012,0 -1352.582,-605.57 -1352.582,-1352.58 0,-747.01 605.57,-1352.588 1352.582,-1352.588 747.011,0 1352.586,605.578 1352.586,1352.588" /><path
             id="path228"
             style="fill:#576389;fill-opacity:1;fill-rule:nonzero;stroke:none"
             d="m -904.488,1953.6 1343.918,0 c 0,742.22 -601.696,1343.92 -1343.918,1343.92 -742.222,0 -1343.912,-601.7 -1343.912,-1343.92 0,-742.22 601.69,-1343.916 1343.912,-1343.916 742.222,0 1343.918,601.696 1343.918,1343.916" /><path
             id="path230"
             style="fill:#57648a;fill-opacity:1;fill-rule:nonzero;stroke:none"
             d="m -904.488,1953.6 1335.246,0 c 0,737.43 -597.813,1335.24 -1335.246,1335.24 -737.432,0 -1335.242,-597.81 -1335.242,-1335.24 0,-737.44 597.81,-1335.248 1335.242,-1335.248 737.433,0 1335.246,597.808 1335.246,1335.248" /><path
             id="path232"
             style="fill:#57648b;fill-opacity:1;fill-rule:nonzero;stroke:none"
             d="m -904.488,1953.6 1326.574,0 c 0,732.64 -593.93,1326.57 -1326.574,1326.57 -732.642,0 -1326.572,-593.93 -1326.572,-1326.57 0,-732.65 593.93,-1326.577 1326.572,-1326.577 732.644,0 1326.574,593.927 1326.574,1326.577" /><path
             id="path234"
             style="fill:#57648b;fill-opacity:1;fill-rule:nonzero;stroke:none"
             d="m -904.488,1953.6 1317.906,0 c 0,727.85 -590.051,1317.9 -1317.906,1317.9 -727.852,0 -1317.902,-590.05 -1317.902,-1317.9 0,-727.86 590.05,-1317.905 1317.902,-1317.905 727.855,0 1317.906,590.045 1317.906,1317.905" /><path
             id="path236"
             style="fill:#56648c;fill-opacity:1;fill-rule:nonzero;stroke:none"
             d="m -904.488,1953.6 1309.234,0 c 0,723.06 -586.168,1309.23 -1309.234,1309.23 -723.062,0 -1309.232,-586.17 -1309.232,-1309.23 0,-723.07 586.17,-1309.237 1309.232,-1309.237 723.066,0 1309.234,586.167 1309.234,1309.237" /><path
             id="path238"
             style="fill:#56648d;fill-opacity:1;fill-rule:nonzero;stroke:none"
             d="m -904.488,1953.6 1300.562,0 c 0,718.28 -582.281,1300.56 -1300.562,1300.56 -718.282,0 -1300.562,-582.28 -1300.562,-1300.56 0,-718.28 582.28,-1300.565 1300.562,-1300.565 718.281,0 1300.562,582.285 1300.562,1300.565" /><path
             id="path240"
             style="fill:#55648d;fill-opacity:1;fill-rule:nonzero;stroke:none"
             d="m -904.488,1953.6 1291.894,0 c 0,713.49 -578.402,1291.89 -1291.894,1291.89 -713.492,0 -1291.892,-578.4 -1291.892,-1291.89 0,-713.49 578.4,-1291.897 1291.892,-1291.897 713.492,0 1291.894,578.407 1291.894,1291.897" /><path
             id="path242"
             style="fill:#55648e;fill-opacity:1;fill-rule:nonzero;stroke:none"
             d="m -904.488,1953.6 1283.222,0 c 0,708.7 -574.519,1283.22 -1283.222,1283.22 -708.702,0 -1283.222,-574.52 -1283.222,-1283.22 0,-708.71 574.52,-1283.225 1283.222,-1283.225 708.703,0 1283.222,574.515 1283.222,1283.225" /><path
             id="path244"
             style="fill:#55648f;fill-opacity:1;fill-rule:nonzero;stroke:none"
             d="m -904.488,1953.6 1274.551,0 c 0,703.91 -570.637,1274.55 -1274.551,1274.55 -703.912,0 -1274.552,-570.64 -1274.552,-1274.55 0,-703.92 570.64,-1274.553 1274.552,-1274.553 703.914,0 1274.551,570.633 1274.551,1274.553" /><path
             id="path246"
             style="fill:#54658f;fill-opacity:1;fill-rule:nonzero;stroke:none"
             d="m -904.488,1953.6 1265.883,0 c 0,699.12 -566.758,1265.88 -1265.883,1265.88 -699.122,0 -1265.882,-566.76 -1265.882,-1265.88 0,-699.13 566.76,-1265.885 1265.882,-1265.885 699.125,0 1265.883,566.755 1265.883,1265.885" /><path
             id="path248"
             style="fill:#546590;fill-opacity:1;fill-rule:nonzero;stroke:none"
             d="m -904.488,1953.6 1257.211,0 c 0,694.33 -562.875,1257.21 -1257.211,1257.21 -694.332,0 -1257.212,-562.88 -1257.212,-1257.21 0,-694.34 562.88,-1257.213 1257.212,-1257.213 694.336,0 1257.211,562.873 1257.211,1257.213" /><path
             id="path250"
             style="fill:#536591;fill-opacity:1;fill-rule:nonzero;stroke:none"
             d="m -904.488,1953.6 1248.543,0 c 0,689.54 -558.996,1248.54 -1248.543,1248.54 -689.552,0 -1248.542,-559 -1248.542,-1248.54 0,-689.55 558.99,-1248.541 1248.542,-1248.541 689.547,0 1248.543,558.991 1248.543,1248.541" /><path
             id="path252"
             style="fill:#536592;fill-opacity:1;fill-rule:nonzero;stroke:none"
             d="m -904.488,1953.6 1239.871,0 c 0,684.76 -555.11,1239.87 -1239.871,1239.87 -684.762,0 -1239.872,-555.11 -1239.872,-1239.87 0,-684.76 555.11,-1239.873 1239.872,-1239.873 684.761,0 1239.871,555.113 1239.871,1239.873" /><path
             id="path254"
             style="fill:#536592;fill-opacity:1;fill-rule:nonzero;stroke:none"
             d="m -904.488,1953.6 1231.199,0 c 0,679.97 -551.227,1231.2 -1231.199,1231.2 -679.972,0 -1231.202,-551.23 -1231.202,-1231.2 0,-679.97 551.23,-1231.202 1231.202,-1231.202 679.972,0 1231.199,551.232 1231.199,1231.202" /><path
             id="path256"
             style="fill:#526593;fill-opacity:1;fill-rule:nonzero;stroke:none"
             d="m -904.488,1953.6 1222.531,0 c 0,675.18 -547.348,1222.53 -1222.531,1222.53 -675.182,0 -1222.532,-547.35 -1222.532,-1222.53 0,-675.19 547.35,-1222.534 1222.532,-1222.534 675.183,0 1222.531,547.344 1222.531,1222.534" /><path
             id="path258"
             style="fill:#526594;fill-opacity:1;fill-rule:nonzero;stroke:none"
             d="m -904.488,1953.6 1213.859,0 c 0,670.39 -543.465,1213.86 -1213.859,1213.86 -670.392,0 -1213.862,-543.47 -1213.862,-1213.86 0,-670.4 543.47,-1213.862 1213.862,-1213.862 670.394,0 1213.859,543.462 1213.859,1213.862" /><path
             id="path260"
             style="fill:#516594;fill-opacity:1;fill-rule:nonzero;stroke:none"
             d="m -904.488,1953.6 1205.187,0 c 0,665.6 -539.582,1205.19 -1205.187,1205.19 -665.602,0 -1205.192,-539.59 -1205.192,-1205.19 0,-665.61 539.59,-1205.19 1205.192,-1205.19 665.605,0 1205.187,539.58 1205.187,1205.19" /><path
             id="path262"
             style="fill:#516595;fill-opacity:1;fill-rule:nonzero;stroke:none"
             d="m -904.488,1953.6 1196.519,0 c 0,660.81 -535.703,1196.52 -1196.519,1196.52 -660.812,0 -1196.522,-535.71 -1196.522,-1196.52 0,-660.82 535.71,-1196.522 1196.522,-1196.522 660.816,0 1196.519,535.702 1196.519,1196.522" /><path
             id="path264"
             style="fill:#516595;fill-opacity:1;fill-rule:nonzero;stroke:none"
             d="m -904.488,1953.6 1187.847,0 c 0,656.03 -531.82,1187.85 -1187.847,1187.85 -656.032,0 -1187.852,-531.82 -1187.852,-1187.85 0,-656.03 531.82,-1187.85 1187.852,-1187.85 656.027,0 1187.847,531.82 1187.847,1187.85" /><path
             id="path266"
             style="fill:#506596;fill-opacity:1;fill-rule:nonzero;stroke:none"
             d="m -904.488,1953.6 1179.179,0 c 0,651.24 -527.941,1179.18 -1179.179,1179.18 -651.242,0 -1179.182,-527.94 -1179.182,-1179.18 0,-651.24 527.94,-1179.178 1179.182,-1179.178 651.238,0 1179.179,527.938 1179.179,1179.178" /><path
             id="path268"
             style="fill:#506697;fill-opacity:1;fill-rule:nonzero;stroke:none"
             d="m -904.488,1953.6 1170.508,0 c 0,646.45 -524.055,1170.51 -1170.508,1170.51 -646.452,0 -1170.512,-524.06 -1170.512,-1170.51 0,-646.46 524.06,-1170.51 1170.512,-1170.51 646.453,0 1170.508,524.05 1170.508,1170.51" /><path
             id="path270"
             style="fill:#4f6597;fill-opacity:1;fill-rule:nonzero;stroke:none"
             d="m -904.488,1953.6 1161.836,0 c 0,641.66 -520.172,1161.83 -1161.836,1161.83 -641.662,0 -1161.832,-520.17 -1161.832,-1161.83 0,-641.67 520.17,-1161.838 1161.832,-1161.838 641.664,0 1161.836,520.168 1161.836,1161.838" /><path
             id="path272"
             style="fill:#4f6598;fill-opacity:1;fill-rule:nonzero;stroke:none"
             d="m -904.488,1953.6 1153.168,0 c 0,636.87 -516.293,1153.17 -1153.168,1153.17 -636.872,0 -1153.172,-516.3 -1153.172,-1153.17 0,-636.88 516.3,-1153.17 1153.172,-1153.17 636.875,0 1153.168,516.29 1153.168,1153.17" /><path
             id="path274"
             style="fill:#4e6699;fill-opacity:1;fill-rule:nonzero;stroke:none"
             d="m -904.488,1953.6 1144.496,0 c 0,632.08 -512.41,1144.49 -1144.496,1144.49 -632.082,0 -1144.492,-512.41 -1144.492,-1144.49 0,-632.09 512.41,-1144.498 1144.492,-1144.498 632.086,0 1144.496,512.408 1144.496,1144.498" /><path
             id="path276"
             style="fill:#4e6699;fill-opacity:1;fill-rule:nonzero;stroke:none"
             d="m -904.488,1953.6 1135.824,0 c 0,627.29 -508.527,1135.83 -1135.824,1135.83 -627.302,0 -1135.822,-508.54 -1135.822,-1135.83 0,-627.3 508.52,-1135.827 1135.822,-1135.827 627.297,0 1135.824,508.527 1135.824,1135.827" /><path
             id="path278"
             style="fill:#4d669a;fill-opacity:1;fill-rule:nonzero;stroke:none"
             d="m -904.488,1953.6 1127.156,0 c 0,622.51 -504.648,1127.15 -1127.156,1127.15 -622.512,0 -1127.152,-504.64 -1127.152,-1127.15 0,-622.51 504.64,-1127.159 1127.152,-1127.159 622.508,0 1127.156,504.649 1127.156,1127.159" /><path
             id="path280"
             style="fill:#4c669a;fill-opacity:1;fill-rule:nonzero;stroke:none"
             d="m -904.488,1953.6 1118.484,0 c 0,617.72 -500.766,1118.48 -1118.484,1118.48 -617.722,0 -1118.482,-500.76 -1118.482,-1118.48 0,-617.72 500.76,-1118.487 1118.482,-1118.487 617.718,0 1118.484,500.767 1118.484,1118.487" /><path
             id="path282"
             style="fill:#4c669a;fill-opacity:1;fill-rule:nonzero;stroke:none"
             d="m -904.488,1953.6 1109.812,0 c 0,612.93 -496.883,1109.81 -1109.812,1109.81 -612.932,0 -1109.812,-496.88 -1109.812,-1109.81 0,-612.93 496.88,-1109.815 1109.812,-1109.815 612.929,0 1109.812,496.885 1109.812,1109.815" /><path
             id="path284"
             style="fill:#4e679b;fill-opacity:1;fill-rule:nonzero;stroke:none"
             d="m -904.488,1953.6 1101.14,0 c 0,608.14 -493,1101.14 -1101.14,1101.14 -608.142,0 -1101.142,-493 -1101.142,-1101.14 0,-608.14 493,-1101.143 1101.142,-1101.143 608.14,0 1101.14,493.003 1101.14,1101.143" /><path
             id="path286"
             style="fill:#4f679c;fill-opacity:1;fill-rule:nonzero;stroke:none"
             d="m -904.488,1953.6 1092.472,0 c 0,603.35 -489.121,1092.47 -1092.472,1092.47 -603.352,0 -1092.472,-489.12 -1092.472,-1092.47 0,-603.35 489.12,-1092.471 1092.472,-1092.471 603.351,0 1092.472,489.121 1092.472,1092.471" /><path
             id="path288"
             style="fill:#50689c;fill-opacity:1;fill-rule:nonzero;stroke:none"
             d="m -904.488,1953.6 1083.801,0 c 0,598.56 -485.235,1083.8 -1083.801,1083.8 -598.562,0 -1083.802,-485.24 -1083.802,-1083.8 0,-598.57 485.24,-1083.803 1083.802,-1083.803 598.566,0 1083.801,485.233 1083.801,1083.803" /><path
             id="path290"
             style="fill:#51699d;fill-opacity:1;fill-rule:nonzero;stroke:none"
             d="m -904.488,1953.6 1075.129,0 c 0,593.78 -481.352,1075.13 -1075.129,1075.13 -593.782,0 -1075.132,-481.35 -1075.132,-1075.13 0,-593.78 481.35,-1075.131 1075.132,-1075.131 593.777,0 1075.129,481.351 1075.129,1075.131" /><path
             id="path292"
             style="fill:#52699d;fill-opacity:1;fill-rule:nonzero;stroke:none"
             d="m -904.488,1953.6 1066.461,0 c 0,588.99 -477.473,1066.46 -1066.461,1066.46 -588.992,0 -1066.462,-477.47 -1066.462,-1066.46 0,-588.99 477.47,-1066.463 1066.462,-1066.463 588.988,0 1066.461,477.473 1066.461,1066.463" /><path
             id="path294"
             style="fill:#536a9e;fill-opacity:1;fill-rule:nonzero;stroke:none"
             d="m -904.488,1953.6 1057.789,0 c 0,584.2 -473.59,1057.79 -1057.789,1057.79 -584.202,0 -1057.792,-473.59 -1057.792,-1057.79 0,-584.2 473.59,-1057.791 1057.792,-1057.791 584.199,0 1057.789,473.591 1057.789,1057.791" /><path
             id="path296"
             style="fill:#546b9f;fill-opacity:1;fill-rule:nonzero;stroke:none"
             d="m -904.488,1953.6 1049.117,0 c 0,579.41 -469.707,1049.12 -1049.117,1049.12 -579.412,0 -1049.122,-469.71 -1049.122,-1049.12 0,-579.41 469.71,-1049.12 1049.122,-1049.12 579.41,0 1049.117,469.71 1049.117,1049.12" /><path
             id="path298"
             style="fill:#566c9f;fill-opacity:1;fill-rule:nonzero;stroke:none"
             d="m -904.488,1953.6 1040.449,0 c 0,574.62 -465.828,1040.45 -1040.449,1040.45 -574.622,0 -1040.452,-465.83 -1040.452,-1040.45 0,-574.62 465.83,-1040.452 1040.452,-1040.452 574.621,0 1040.449,465.832 1040.449,1040.452" /><path
             id="path300"
             style="fill:#576da0;fill-opacity:1;fill-rule:nonzero;stroke:none"
             d="m -904.488,1953.6 1031.777,0 c 0,569.83 -461.945,1031.78 -1031.777,1031.78 -569.832,0 -1031.782,-461.95 -1031.782,-1031.78 0,-569.83 461.95,-1031.78 1031.782,-1031.78 569.832,0 1031.777,461.95 1031.777,1031.78" /><path
             id="path302"
             style="fill:#586ea0;fill-opacity:1;fill-rule:nonzero;stroke:none"
             d="m -904.488,1953.6 1023.109,0 c 0,565.04 -458.066,1023.11 -1023.109,1023.11 -565.042,0 -1023.112,-458.07 -1023.112,-1023.11 0,-565.05 458.07,-1023.108 1023.112,-1023.108 565.043,0 1023.109,458.058 1023.109,1023.108" /><path
             id="path304"
             style="fill:#596ea1;fill-opacity:1;fill-rule:nonzero;stroke:none"
             d="m -904.488,1953.6 1014.437,0 c 0,560.26 -454.179,1014.44 -1014.437,1014.44 -560.262,0 -1014.442,-454.18 -1014.442,-1014.44 0,-560.26 454.18,-1014.44 1014.442,-1014.44 560.258,0 1014.437,454.18 1014.437,1014.44" /><path
             id="path306"
             style="fill:#5a6fa1;fill-opacity:1;fill-rule:nonzero;stroke:none"
             d="m -904.488,1953.6 1005.765,0 c 0,555.47 -450.297,1005.76 -1005.765,1005.76 -555.472,0 -1005.762,-450.29 -1005.762,-1005.76 0,-555.47 450.29,-1005.768 1005.762,-1005.768 555.468,0 1005.765,450.298 1005.765,1005.768" /><path
             id="path308"
             style="fill:#5b70a2;fill-opacity:1;fill-rule:nonzero;stroke:none"
             d="m -904.488,1953.6 997.0974,0 c 0,550.68 -446.4184,997.1 -997.0974,997.1 -550.682,0 -997.102,-446.42 -997.102,-997.1 0,-550.68 446.42,-997.1 997.102,-997.1 550.679,0 997.0974,446.42 997.0974,997.1" /><path
             id="path310"
             style="fill:#5d71a3;fill-opacity:1;fill-rule:nonzero;stroke:none"
             d="m -904.488,1953.6 988.4255,0 c 0,545.89 -442.5355,988.42 -988.4255,988.42 -545.892,0 -988.422,-442.53 -988.422,-988.42 0,-545.89 442.53,-988.428 988.422,-988.428 545.89,0 988.4255,442.538 988.4255,988.428" /><path
             id="path312"
             style="fill:#5e72a3;fill-opacity:1;fill-rule:nonzero;stroke:none"
             d="m -904.488,1953.6 979.7536,0 c 0,541.1 -438.6526,979.76 -979.7536,979.76 -541.102,0 -979.752,-438.66 -979.752,-979.76 0,-541.1 438.65,-979.756 979.752,-979.756 541.101,0 979.7536,438.656 979.7536,979.756" /><path
             id="path314"
             style="fill:#5f72a4;fill-opacity:1;fill-rule:nonzero;stroke:none"
             d="m -904.488,1953.6 971.0857,0 c 0,536.31 -434.7737,971.08 -971.0857,971.08 -536.312,0 -971.082,-434.77 -971.082,-971.08 0,-536.31 434.77,-971.088 971.082,-971.088 536.312,0 971.0857,434.778 971.0857,971.088" /><path
             id="path316"
             style="fill:#6073a4;fill-opacity:1;fill-rule:nonzero;stroke:none"
             d="m -904.488,1953.6 962.4138,0 c 0,531.52 -430.8908,962.41 -962.4138,962.41 -531.522,0 -962.412,-430.89 -962.412,-962.41 0,-531.53 430.89,-962.416 962.412,-962.416 531.523,0 962.4138,430.886 962.4138,962.416" /><path
             id="path318"
             style="fill:#6174a5;fill-opacity:1;fill-rule:nonzero;stroke:none"
             d="m -904.488,1953.6 953.7458,0 c 0,526.74 -427.0078,953.74 -953.7458,953.74 -526.742,0 -953.742,-427 -953.742,-953.74 0,-526.74 427,-953.745 953.742,-953.745 526.738,0 953.7458,427.005 953.7458,953.745" /><path
             id="path320"
             style="fill:#6275a6;fill-opacity:1;fill-rule:nonzero;stroke:none"
             d="m -904.488,1953.6 945.0739,0 c 0,521.95 -423.1249,945.07 -945.0739,945.07 -521.952,0 -945.072,-423.12 -945.072,-945.07 0,-521.95 423.12,-945.08 945.072,-945.08 521.949,0 945.0739,423.13 945.0739,945.08" /><path
             id="path322"
             style="fill:#6476a6;fill-opacity:1;fill-rule:nonzero;stroke:none"
             d="m -904.488,1953.6 936.4021,0 c 0,517.16 -419.2421,936.4 -936.4021,936.4 -517.162,0 -936.402,-419.24 -936.402,-936.4 0,-517.16 419.24,-936.4 936.402,-936.4 517.16,0 936.4021,419.24 936.4021,936.4" /></g></g><path
         id="path324"
         style="fill:#547cc1;fill-opacity:1;fill-rule:evenodd;stroke:none"
         d="m 966.379,513.91 c 496.441,0 898.891,203.957 898.891,455.543 0,251.577 -402.45,455.537 -898.891,455.537 -496.438,0 -898.8907,-203.96 -898.8907,-455.537 0,-251.586 402.4527,-455.543 898.8907,-455.543" /><path
         id="path326"
         style="fill:#ffffff;fill-opacity:1;fill-rule:evenodd;stroke:none"
         d="m 1148.46,822.215 44.59,229.475 c 10.06,51.79 1.7,90.43 -24.86,114.85 -25.73,23.62 -69.4,35.1 -133.51,35.1 l -77.219,0 22.098,113.7 c 0.832,4.29 -0.293,8.72 -3.071,12.09 -2.773,3.37 -6.914,5.32 -11.273,5.32 l -106.578,0 c -7,0 -13.012,-4.96 -14.352,-11.83 L 796.938,1077.3 c -4.309,27.4 -14.915,50.98 -31.895,70.41 -31.258,35.79 -80.707,53.93 -146.977,53.93 l -206.566,0 c -7,0 -13.016,-4.96 -14.352,-11.83 L 301.305,696.684 c -0.832,-4.282 0.293,-8.715 3.07,-12.082 2.777,-3.368 6.914,-5.321 11.277,-5.321 l 107.422,0 c 6.996,0 13.012,4.961 14.348,11.828 l 23.183,119.278 79.965,0 c 41.965,0 77.207,4.547 104.735,13.508 28.148,9.152 54.043,24.671 76.871,46.043 18.441,16.949 33.691,35.921 45.418,56.394 l -19.149,-98.539 c -0.832,-4.285 0.293,-8.719 3.071,-12.086 2.773,-3.367 6.91,-5.32 11.273,-5.32 l 106.578,0 c 6.996,0 13.016,4.961 14.348,11.828 l 52.601,270.685 73.134,0 c 31.16,0 40.28,-6.21 42.76,-8.87 2.25,-2.44 6.94,-11.02 1.69,-38.05 l -42.4,-218.191 c -0.83,-4.281 0.29,-8.715 3.07,-12.082 2.77,-3.367 6.91,-5.32 11.28,-5.32 l 108.27,0 c 6.99,0 13.01,4.961 14.34,11.828 z M 654.367,1011.82 c -6.695,-34.398 -19.312,-58.941 -37.5,-72.941 -18.476,-14.231 -48.035,-21.441 -87.847,-21.441 l -47.618,0 34.434,177.152 61.551,0 c 45.222,0 63.445,-9.66 70.758,-17.77 10.14,-11.25 12.289,-33.72 6.222,-65" /><path
         id="path328"
         style="fill:#ffffff;fill-opacity:1;fill-rule:evenodd;stroke:none"
         d="m 1597.41,1147.71 c -31.26,35.79 -80.71,53.93 -146.98,53.93 l -206.57,0 c -7,0 -13.02,-4.96 -14.35,-11.83 l -95.85,-493.126 c -0.82,-4.282 0.3,-8.715 3.07,-12.082 2.78,-3.368 6.92,-5.321 11.29,-5.321 l 107.41,0 c 7,0 13.02,4.961 14.35,11.828 l 23.18,119.278 79.97,0 c 41.96,0 77.21,4.547 104.73,13.508 28.15,9.152 54.05,24.671 76.88,46.043 19.04,17.503 34.71,37.148 46.59,58.386 11.85,21.215 20.37,44.895 25.32,70.379 12.22,62.827 2.44,112.957 -29.04,149.007 z m -104.59,-135.89 c -6.7,-34.398 -19.31,-58.941 -37.5,-72.941 -18.48,-14.231 -48.03,-21.441 -87.86,-21.441 l -47.6,0 34.43,177.152 61.55,0 c 45.22,0 63.44,-9.66 70.75,-17.77 10.14,-11.25 12.29,-33.72 6.23,-65" /><path
         id="path330"
         style="fill:#231f20;fill-opacity:1;fill-rule:evenodd;stroke:none"
         d="m 577.387,1109.21 c 40.812,0 68.011,-7.53 81.609,-22.6 13.59,-15.07 16.828,-40.93 9.715,-77.58 -7.426,-38.171 -21.727,-65.409 -42.926,-81.733 -21.199,-16.32 -53.461,-24.477 -96.765,-24.477 l -65.348,0 40.113,206.39 73.602,0 z m -261.735,-415.312 107.422,0 25.481,131.106 92.015,0 c 40.598,0 73.996,4.254 100.215,12.793 26.223,8.523 50.051,22.824 71.5,42.898 18,16.547 32.567,34.801 43.719,54.754 11.144,19.946 19.059,41.965 23.738,66.041 11.367,58.46 2.789,103.99 -25.703,136.61 -28.496,32.61 -73.828,48.92 -135.973,48.92 l -206.566,0 -95.848,-493.122" /><path
         id="path332"
         style="fill:#231f20;fill-opacity:1;fill-rule:evenodd;stroke:none"
         d="m 858.637,1318.13 106.578,0 -25.481,-131.11 94.946,0 c 59.73,0 100.94,-10.42 123.62,-31.25 22.68,-20.84 29.47,-54.61 20.41,-101.29 l -44.59,-229.476 -108.27,0 42.39,218.186 c 4.83,24.82 3.06,41.75 -5.32,50.78 -8.38,9.03 -26.21,13.54 -53.47,13.54 l -85.184,0 -54.899,-282.506 -106.578,0 95.848,493.126" /><path
         id="path334"
         style="fill:#231f20;fill-opacity:1;fill-rule:evenodd;stroke:none"
         d="m 1415.84,1109.21 c 40.81,0 68.01,-7.53 81.61,-22.6 13.59,-15.07 16.82,-40.93 9.71,-77.58 -7.43,-38.171 -21.72,-65.409 -42.93,-81.733 -21.19,-16.32 -53.45,-24.477 -96.77,-24.477 l -65.33,0 40.1,206.39 73.61,0 z m -261.74,-415.312 107.42,0 25.49,131.106 92.01,0 c 40.6,0 74,4.254 100.21,12.793 26.23,8.523 50.06,22.824 71.51,42.898 18,16.547 32.56,34.801 43.72,54.754 11.14,19.946 19.05,41.965 23.74,66.041 11.36,58.46 2.78,103.99 -25.71,136.61 -28.5,32.61 -73.83,48.92 -135.97,48.92 l -206.57,0 -95.85,-493.122" /></g></g></svg>